# xmcd
#
# Track frame offsets:
#	150
#	24679
#	76301
#	96090
#	123770
#	161051
#	169817
#	197326
#	213381
#	229488
#	249363
#	264183
#	289313
#
# Disc length: 4477 seconds
#
# Revision: 5
# Processed by: cddbd v1.5.2PL0 Copyright (c) Steve Scherf et al.
# Submitted via: audiograbber 1.83.01
#
DISCID=ac117b0d
DTITLE=Meat Loaf - Braver Than We Are [Bonus Edition]
DYEAR=2016
DGENRE=Rock
TTITLE0=Who Needs The Young
TTITLE1=Going All The Way (A Song In 6 Movements) [featuring Ellen Foley and Karl
TTITLE1=a DeVito]
TTITLE2=Speaking In Tongues [featuring Stacy Michelle]
TTITLE3=Loving You Is A Dirty Job (But Somebody's Gotta Do It) [featuring Stacy
TTITLE3=Michelle]
TTITLE4=Souvenirs
TTITLE5=Only When I Feel
TTITLE6=More
TTITLE7=Godz
TTITLE8=Skull Of Your Country [featuring Cian Coey]
TTITLE9=Train Of Love
TTITLE10=For What It's Worth [with Stephen Stills] [bonus track]
TTITLE11=Prize Fight Lover [bonus track]
TTITLE12=I Would Do Anything For Love (But I Won't Do That) [featuring Imelda M
TTITLE12=ay] [bonus track]
EXTD=
EXTT0=
EXTT1=
EXTT2=
EXTT3=
EXTT4=
EXTT5=
EXTT6=
EXTT7=
EXTT8=
EXTT9=
EXTT10=
EXTT11=
EXTT12=
PLAYORDER=
